PathFileType	4	(X/Y/Z)	C:\Users\Basilio\Documents\Thesis Gigler\squatting_fais\c3dfiles\075\SLS_front_pre5\markers_experimental.trc
DataRate	CameraRate	NumFrames	NumMarkers	Units	OrigDataRate	OrigDataStartFrame	OrigNumFrames
200.000000	200.000000	4	61	mm	200.000000	681	1363
Frame#	Time	FHD			LBHD			C7			T10			CLAV			LSHO			LUUPA			LMUPA			LDUPA			LLEP			LMEP			LRAD			LUL			LRFIN			RSHO			RUPA1			RMUPA			RDUPA			RLEP			RMEP			RRAD			RUL			RUFIN			RASI			USACR			LSACR			RSACR			LTHI1			LTHI2			LTHI3			LTHI4			LLFC			LMFC			LTIB1			LTIB2			LTIB3			LTIB4			LLMAL			LMMAL			LHEE			LMT1			LMT2			LMT5			RTHI			RTHI2			RTHI3			RTHI4			RLFC			RMFC			RTIB1			RTIB2			RTIB3			RTIB4			RLMAL			RMMAL			RHEE			RMT1			RMT2			RMT5			LASI			RBHD			
		X1	Y1	Z1	X2	Y2	Z2	X3	Y3	Z3	X4	Y4	Z4	X5	Y5	Z5	X6	Y6	Z6	X7	Y7	Z7	X8	Y8	Z8	X9	Y9	Z9	X10	Y10	Z10	X11	Y11	Z11	X12	Y12	Z12	X13	Y13	Z13	X14	Y14	Z14	X15	Y15	Z15	X16	Y16	Z16	X17	Y17	Z17	X18	Y18	Z18	X19	Y19	Z19	X20	Y20	Z20	X21	Y21	Z21	X22	Y22	Z22	X23	Y23	Z23	X24	Y24	Z24	X25	Y25	Z25	X26	Y26	Z26	X27	Y27	Z27	X28	Y28	Z28	X29	Y29	Z29	X30	Y30	Z30	X31	Y31	Z31	X32	Y32	Z32	X33	Y33	Z33	X34	Y34	Z34	X35	Y35	Z35	X36	Y36	Z36	X37	Y37	Z37	X38	Y38	Z38	X39	Y39	Z39	X40	Y40	Z40	X41	Y41	Z41	X42	Y42	Z42	X43	Y43	Z43	X44	Y44	Z44	X45	Y45	Z45	X46	Y46	Z46	X47	Y47	Z47	X48	Y48	Z48	X49	Y49	Z49	X50	Y50	Z50	X51	Y51	Z51	X52	Y52	Z52	X53	Y53	Z53	X54	Y54	Z54	X55	Y55	Z55	X56	Y56	Z56	X57	Y57	Z57	X58	Y58	Z58	X59	Y59	Z59	X60	Y60	Z60	X61	Y61	Z61	

682	3.405	-228.2570190429688	1412.325561523438	-747.0087280273439	-385.841033935547	1317.112060546875	-824.3357543945315	-433.594207763672	1218.295288085938	-772.076843261719	-572.4829711914064	929.4621582031252	-776.4934692382815	-315.3505249023438	1121.853637695313	-769.1951293945315	-322.0438842773438	1189.32666015625	-895.4739990234377	-169.0962066650391	1129.094604492188	-984.8721923828127	-144.6484985351563	1145.323852539063	-944.5249633789065	-100.2742309570313	1120.871704101563	-977.333190917969	-20.97369003295899	1110.54736328125	-960.8455200195315	-40.2671127319336	1037.036987304688	-922.3274536132815	nan	nan	nan	218.1489410400391	1123.527709960938	-858.6323852539065	219.9656829833985	1136.652465820313	-753.4598388671876	-340.4564208984376	1168.6943359375	-635.2359008789064	-204.6224975585938	1102.992065429688	-530.3969116210939	-172.2827911376953	1120.1728515625	-563.1129760742189	-134.833251953125	1092.495727539063	-523.9767456054689	-64.75498199462892	1087.364990234375	-531.8082885742189	-60.23944091796876	1014.554077148438	-556.1571044921876	152.8296966552735	1117.88623046875	-702.2611694335939	173.1498718261719	1123.584228515625	-627.4795532226564	228.5885772705079	1156.194946289063	-723.9675292968751	-454.4967041015626	737.4587402343751	-667.7376098632814	-605.5333862304689	800.968200683594	-789.0166015625002	-614.3101806640626	771.3342895507815	-817.330505371094	-614.4705200195314	767.8853759765626	-762.2872314453126	-350.1983337402344	615.9178466796876	-1015.31787109375	-266.9450988769532	605.4755249023439	-1018.4423828125	-248.2100067138672	643.9237060546876	-993.1960449218752	-234.1950683593751	556.1402587890626	-1019.857055664063	-151.5457916259766	485.4025878906251	-1017.147155761719	-112.9354553222657	498.471893310547	-894.653747558594	-24.58575057983399	435.991668701172	-990.8256835937502	-44.44293975830079	370.2283630371094	-1043.076293945313	-9.285229682922365	390.0157775878907	-1022.778381347656	40.65185165405274	325.7219848632813	-996.8333129882815	77.41194915771486	168.49853515625	-1024.389282226563	89.04647064208986	196.3692474365235	-941.098571777344	40.83007431030274	117.0451812744141	-983.1539306640627	232.0850067138672	191.1956787109375	-935.5053710937502	242.3289947509766	191.4321746826172	-983.814636230469	222.0009765625001	150.3859405517578	-1032.31689453125	-407.9748535156251	566.5904541015626	-612.1874389648439	-341.5740661621094	565.6466674804689	-609.7768554687501	-326.4556884765626	595.2346801757814	-617.8502197265626	-293.2940063476563	497.1289672851564	-615.7788696289064	-196.7020416259766	401.2268066406251	-650.7766113281251	-166.5474243164063	423.6150817871095	-772.4111938476565	-189.343002319336	279.1695556640626	-749.3620605468751	-271.2942199707032	223.2144165039063	-703.4056396484376	-243.2808380126954	210.6010284423829	-740.4476928710939	-272.9865112304688	187.1298522949219	-784.7324218750002	-391.6097106933595	103.3687210083008	-765.8491210937501	-351.4268798828126	136.7192077636719	-841.595642089844	-445.9340820312501	92.92156982421876	-833.4532470703127	-241.9273071289063	58.97786712646486	-821.286315917969	-246.9559020996094	55.53050231933595	-778.9000244140627	-289.6773986816407	32.57860183715821	-732.7709960937501	-454.2644042968751	760.6962280273439	-914.5030517578127	-346.3139343261719	1339.821411132813	-667.5287475585939	
683	3.41	-228.4933471679688	1413.043212890625	-747.0952758789064	-385.9272766113282	1317.900390625	-824.2573242187502	-433.7027587890626	1219.001342773438	-772.1177978515627	-572.4084472656251	930.0135498046877	-776.6001586914065	-315.5019226074219	1122.645141601563	-769.374450683594	-322.2253723144532	1189.97802734375	-895.5097656250002	-169.2512664794922	1130.010620117188	-984.9478759765627	-144.82373046875	1146.278930664063	-944.5485839843752	-100.7501983642578	1122.156616210938	-977.4565429687502	-20.90229606628418	1111.738525390625	-960.9734497070315	-40.12426376342774	1038.131469726563	-922.6022949218752	nan	nan	nan	217.9907379150391	1124.580322265625	-858.5263671875002	220.0220031738282	1138.693603515625	-753.7492065429689	-340.7318115234376	1169.525756835938	-635.4363403320314	-204.7505187988282	1104.226318359375	-530.2802734375001	-172.4243316650391	1121.186767578125	-563.2780761718751	-135.0393218994141	1093.595336914063	-524.0525512695314	-64.82794189453126	1088.705810546875	-531.6978759765626	-60.24459075927736	1015.936706542969	-555.8677978515626	152.6416931152344	1119.510375976563	-702.0998535156251	172.9070587158203	1125.241088867188	-627.4888916015626	228.3480987548829	1157.837036132813	-723.9245605468751	-454.366424560547	738.0499267578126	-667.7908935546876	-605.4478149414064	801.575134277344	-789.110778808594	-614.1805419921876	771.9964599609377	-817.3931274414065	-614.3000488281251	768.462097167969	-762.3786621093751	-351.3062438964844	616.7719116210939	-1015.782043457031	-266.8207397460938	605.8599853515626	-1018.33642578125	-248.0091857910157	644.2597045898439	-993.0814208984377	-234.1535339355469	556.4255371093751	-1019.788635253906	-151.774658203125	485.837127685547	-1017.20166015625	-113.009033203125	498.6866149902345	-894.6330566406252	-24.65734863281251	436.2793884277345	-990.8984375000002	-44.48001098632813	370.4908447265626	-1043.046508789063	-9.267649650573732	390.2099914550782	-1022.693054199219	40.62498474121094	325.9019470214844	-996.7829589843752	77.07064819335939	168.7901000976563	-1024.423706054688	88.96775817871095	196.5292205810547	-941.1072387695315	40.67160415649415	117.302360534668	-983.1824340820315	232.0274810791016	191.1924285888672	-935.5236816406252	242.2156066894532	191.4534759521485	-983.8298950195315	221.9237823486329	150.469970703125	-1032.30126953125	-407.9106445312501	567.0159301757814	-612.2773437500001	-341.4669494628907	565.9788208007814	-609.8567504882814	-326.2818603515626	595.6163330078126	-617.9517822265626	-292.9657592773438	497.723602294922	-615.7488403320314	-196.8119812011719	401.3601379394532	-651.0051269531251	-166.6436309814453	423.7133178710939	-772.5875244140627	-189.3897552490235	279.2245788574219	-749.5173950195314	-271.3913269042969	223.3421325683594	-703.4920654296876	-243.7084655761719	210.8250427246094	-740.8054199218751	-273.0527343750001	187.2247619628907	-784.827819824219	-391.5844726562501	103.3880920410157	-765.8710327148439	-351.5795288085938	136.6846618652344	-841.649597167969	-445.9340820312501	92.85594177246095	-833.4351806640627	-241.916732788086	58.90321350097658	-821.3044433593752	-246.9784545898438	55.53206253051759	-778.9423828125002	-289.6649169921876	32.60351943969727	-732.7692871093751	-454.0604248046876	761.0714111328126	-914.4941406250002	-346.4327697753907	1340.463500976563	-667.7964477539064	
684	3.415	-228.7708282470704	1413.894165039063	-747.1864013671876	-385.8596191406251	1318.599487304688	-824.0485839843752	-433.9335327148439	1219.5859375	-772.2493286132815	-572.3836669921876	930.5445556640627	-776.7232055664065	-315.6456909179688	1123.354736328125	-769.3983154296877	-322.5166931152344	1190.750732421875	-895.7174072265627	-169.2705841064453	1130.925537109375	-984.9968872070315	-144.9304351806641	1147.310302734375	-944.597595214844	-100.7977066040039	1123.07177734375	-977.0637207031252	-21.85030937194825	1112.550415039063	-960.0384521484377	-39.89735794067384	1039.114990234375	-922.2707519531252	nan	nan	nan	217.6596984863282	1126.23828125	-858.5095214843752	219.6564331054688	1139.909301757813	-753.3541870117189	-340.9082336425782	1170.341430664063	-635.5120239257814	-204.9530487060547	1105.285278320313	-530.4049072265626	-172.6635284423828	1122.411254882813	-563.2722778320314	-135.1367492675782	1094.913818359375	-523.9592285156251	-65.01134490966798	1090.014404296875	-531.6618041992189	-60.22164154052736	1017.293395996094	-555.7892456054689	152.5512390136719	1121.001708984375	-702.0466308593751	172.5998992919922	1126.728881835938	-627.4511108398439	228.1044311523438	1159.540283203125	-723.8651733398439	-454.1970214843751	738.7407226562501	-667.8422241210939	-605.2678222656251	802.073181152344	-789.1849365234377	-613.9304199218751	772.5617675781252	-817.508728027344	-614.2164916992189	768.9223632812502	-762.4481811523439	-351.1650695800782	617.2876586914064	-1015.786071777344	-266.8749694824219	606.4541625976564	-1018.468078613281	-247.9556274414063	644.6513671875001	-993.068054199219	-234.0370483398438	556.8903808593751	-1019.698303222656	-151.6999664306641	486.1505432128907	-1017.185119628906	-113.0210342407227	498.8979492187501	-894.616882324219	-24.61655998229981	436.489959716797	-990.8160400390627	-44.24712371826173	370.6997680664063	-1042.953125	-9.301878929138185	390.3926391601564	-1022.634643554688	40.59519958496094	326.0773315429688	-996.7928466796877	76.9179153442383	169.0026550292969	-1024.35400390625	88.89739990234376	196.6720123291016	-941.079528808594	40.52586364746094	117.5696105957032	-983.194763183594	231.9193878173829	191.2068481445313	-935.4953613281252	242.1421203613282	191.511947631836	-983.772644042969	221.7431793212891	150.5146179199219	-1032.356567382813	-407.7360839843751	567.5154418945314	-612.3998413085939	-341.3265075683594	566.3730468750001	-609.9276733398439	-326.1326293945313	595.9443359375001	-618.0953979492189	-292.9466552734376	498.0029296875001	-615.9720458984376	-196.9021453857422	401.5663146972657	-651.2145385742189	-166.7158203125	423.8787231445314	-772.7613525390627	-189.4761352539063	279.3495788574219	-749.5852661132814	-271.5060424804688	223.5145416259766	-703.7918701171876	-243.8143157958985	210.8282775878907	-740.8912963867189	-273.0228881835938	187.1783599853516	-784.8502197265627	-391.5884094238282	103.393669128418	-765.9107055664064	-351.5815429687501	136.7314910888672	-841.7518310546877	-445.9237060546876	92.87448120117189	-833.4364013671877	-241.9374084472657	58.90478134155275	-821.3043212890627	-246.9490661621094	55.51646041870119	-778.928405761719	-289.6665344238282	32.64066314697266	-732.7449951171876	-453.8236389160157	761.5824584960939	-914.5373535156252	-346.6460876464844	1341.270874023438	-667.6772460937501	
685	3.42	-229.0155181884766	1414.745361328125	-747.2658081054689	-386.4880981445314	1319.441650390625	-824.523376464844	-434.0894165039064	1220.412719726563	-772.4138793945315	-572.3374023437501	931.1672363281252	-776.8674316406252	-315.8507995605469	1124.223754882813	-769.4274902343752	-322.7511901855469	1191.600341796875	-895.7934570312502	-169.3903198242188	1131.849975585938	-985.0364379882815	-144.9854736328125	1148.211791992188	-944.7342529296877	-100.5470352172852	1124.079345703125	-977.2110595703127	-21.21022415161133	1114.018432617188	-960.788269042969	-39.87307357788087	1040.123779296875	-922.3940429687502	nan	nan	nan	217.6124420166016	1127.706787109375	-858.3806152343752	218.9078674316407	1141.743896484375	-753.0592041015626	-341.0839233398438	1171.091064453125	-635.5731201171876	-205.1512451171876	1106.359741210938	-530.4672851562501	-172.9132537841797	1123.442993164063	-563.3268432617189	-135.4857330322266	1096.013305664063	-524.0592041015626	-65.2045364379883	1091.302001953125	-531.6428222656251	-60.34242248535158	1018.220825195313	-555.8408203125001	152.2817077636719	1122.621337890625	-701.9869995117189	172.4613494873047	1128.50390625	-627.3573608398439	227.8875274658204	1161.328369140625	-723.8236694335939	-453.8922119140626	739.5287475585939	-667.7779541015626	-605.1232910156251	802.719665527344	-789.2604980468752	-613.7908325195314	773.1245117187502	-817.5310668945315	-614.0078735351564	769.5821533203127	-762.4678955078126	-350.3161010742188	617.6534423828126	-1015.453002929688	-266.5992431640626	606.8770751953126	-1018.327453613281	-247.9150695800782	645.1870727539064	-993.1369628906252	-233.8904876708985	557.3715820312501	-1019.708679199219	-151.7187194824219	486.5216064453126	-1017.160034179688	-113.0151290893555	499.1382141113282	-894.5902099609377	-25.09150695800782	436.7731933593751	-990.893981933594	-44.30608367919923	371.1352539062501	-1042.956298828125	-9.355185508728029	390.6239013671876	-1022.587158203125	40.62285614013673	326.2456665039063	-996.7419433593752	76.79714202880861	169.2733764648438	-1024.23583984375	88.7577590942383	196.8570404052735	-941.015563964844	40.21885299682618	117.8140411376953	-982.964538574219	231.8375549316407	191.252670288086	-935.5193481445315	241.9235076904297	191.5982360839844	-983.8052978515627	221.6408081054688	150.5987243652344	-1032.312133789063	-407.5535583496095	568.0634765625001	-612.3359375000001	-341.2066040039063	566.7753906250001	-609.9717407226564	-325.9642333984376	596.3002929687501	-618.2070312500001	-292.8750915527344	498.2900390625001	-616.1175537109376	-197.0127258300782	401.691619873047	-651.4343261718751	-166.7604217529297	423.949188232422	-772.888854980469	-189.5028076171875	279.4385986328126	-749.7401123046876	-271.5617675781251	223.5447387695313	-703.9887695312501	-243.8086242675782	210.9105834960938	-740.9528808593751	-273.1270751953126	187.312484741211	-784.9381103515627	-391.576629638672	103.4089813232422	-765.8854980468751	-351.5953674316407	136.6488037109375	-841.751892089844	-445.9162902832032	92.86056518554689	-833.4547119140627	-241.9304199218751	58.88376617431642	-821.3359985351565	-246.9516143798829	55.51159667968751	-778.915466308594	-289.6812438964844	32.64583206176759	-732.7391967773439	-453.6880493164064	762.0333862304689	-914.5696411132815	-346.8659057617188	1342.083984375	-667.9597167968751	
